# xmcd
#
# Track frame offsets: 
#        150
#        18927
#        34365
#        51462
#        72332
#        89020
#        110695
#        135035
#        152730
#        169425
#        184595
#        216715
#        236245
#        253525
#
# Disc length: 3546 seconds
#
# Revision: 5
# Processed by: cddbd v1.5.2PL0 Copyright (c) Steve Scherf et al.
# Submitted via: ExactAudioCopy v0.99pb5
#
DISCID=d10dd80e
DTITLE=Carey Bell - Good Luck Man
DYEAR=1997
DGENRE=Blues
TTITLE0=My Love Strikes Like Lightning
TTITLE1=Love Her, Don't Shove Her
TTITLE2=Sleeping With The Devil
TTITLE3=Hard Working Woman
TTITLE4=Bell Hop
TTITLE5=Bad Habits
TTITLE6=Good Luck Man
TTITLE7=Hard Hearted Woman
TTITLE8=Going Back To Mississippi
TTITLE9=I'm A Business Man
TTITLE10=Teardrops
TTITLE11=Brand New Deal
TTITLE12=Good Lover
TTITLE13=Double Cross
EXTD=YEAR: 1997 ID3G: 0
EXTT0=
EXTT1=
EXTT2=
EXTT3=
EXTT4=
EXTT5=
EXTT6=
EXTT7=
EXTT8=
EXTT9=
EXTT10=
EXTT11=
EXTT12=
EXTT13=
PLAYORDER=
